:SAMPLES-PER-SECOND 30
:FULLY-SPECIFIED
:DEGREES
291
root  -70.2354 25.3243 14.2343 3.72577 50.0422 -5.77252
RightUpLeg  -52.3326 -8.17789 -16.9369
RightLeg  71.0506 1.59915 3.64807
RightFoot  -9.73716 -0.0654949 -0.391388
RightToes  -49.0995 -0.294942 -0.360549
Spine  9.3332 -3.63246 4.81325
Spine1  15.0599 -9.36914 9.44854
HEad  7.87525 21.4453 -18.0689
LeftShoulder1  0 -2.42657e-020 -4.95415e-022
LeftArm  0.718315 -7.25215 -97.2134
LeftForeArm  12.5344 -36.9204 -7.60816
LeftHand  0.0640844 -2.19605 -3.72435
RightShoulder  0 2.42657e-020 1.07489e-018
RightArm  12.2028 5.69275 70.7591
RightForeArm  87.5003 67.6661 25.3857
RightHand  -8.6617 17.1786 -52.9042
LeftUpLeg  -9.89573 -22.6259 21.741
LeftLeg  70.1231 7.48338 16.6153
LeftFoot  -9.54842 -0.327567 -3.92056
LeftToes  -15.2842 9.37529e-007 1.1992e-007
292
root  -70.3309 24.5572 15.3407 5.19226 47.8354 -6.38779
RightUpLeg  -57.2513 -5.17835 -15.435
RightLeg  77.1851 0.847067 2.56553
RightFoot  -13.3056 -0.058272 -0.122052
RightToes  -52.2048 -0.32256 -0.373201
Spine  11.2037 -2.47876 5.62508
Spine1  17.6326 -7.38001 10.4229
HEad  5.91188 21.5703 -19.1558
LeftShoulder1  0 -2.42657e-020 -4.95415e-022
LeftArm  -0.477124 -13.1392 -100.135
LeftForeArm  14.1433 -29.7247 -5.77012
LeftHand  0.0666747 -1.23463 -6.58913
RightShoulder  0 2.42657e-020 1.07489e-018
RightArm  8.84491 17.1462 74.0182
RightForeArm  71.0643 44.4914 9.90375
RightHand  -8.53641 19.5055 -46.5853
LeftUpLeg  -17.9256 -24.2801 19.0725
LeftLeg  84.4964 2.05186 12.4434
LeftFoot  -12.3295 -0.40996 -3.79413
LeftToes  -18.3645 9.37529e-007 1.1992e-007
293
root  -70.2682 23.9064 16.3561 6.7359 44.6804 -7.01788
RightUpLeg  -61.4735 -0.987435 -14.4445
RightLeg  81.6698 0.330853 1.10811
RightFoot  -16.5385 0.0210676 0.522528
RightToes  -51.8078 -0.318992 -0.371668
Spine  13.5563 0.535213 6.65923
Spine1  22.227 -0.595913 8.93264
HEad  4.23367 21.8708 -21.038
LeftShoulder1  0 -2.42657e-020 -4.95415e-022
LeftArm  2.44512 -17.4552 -102.407
LeftForeArm  12.6939 -28.6903 -5.5285
LeftHand  0.0386094 -0.672851 -7.01052
RightShoulder  0 2.42657e-020 1.07489e-018
RightArm  0.974945 27.6617 74.0314
RightForeArm  67.6557 29.7987 5.72438
RightHand  -6.56426 21.0441 -33.956
LeftUpLeg  -25.5819 -20.9915 15.9658
LeftLeg  96.0617 -0.61724 14.6905
LeftFoot  -17.8357 -0.885403 -5.63814
LeftToes  -13.7083 9.37529e-007 1.1992e-007
294
root  -69.9405 23.6413 17.1774 8.91309 42.729 -6.44901
RightUpLeg  -63.566 0.608801 -14.4327
RightLeg  83.967 0.192473 0.543175
RightFoot  -19.1078 0.0738986 0.81664
RightToes  -46.7854 -0.274828 -0.350157
Spine  15.0974 2.83834 7.3176
Spine1  25.573 4.95408 7.64521
HEad  3.75066 21.4732 -22.7947
LeftShoulder1  0 -2.42657e-020 -4.95415e-022
LeftArm  4.71043 -18.8454 -103.965
LeftForeArm  12.6881 -30.6929 -5.99937
LeftHand  0.0206437 -0.421883 -6.07264
RightShoulder  0 2.42657e-020 1.07489e-018
RightArm  -18.5451 36.801 73.3638
RightForeArm  65.003 16.0834 2.85372
RightHand  -3.54011 23.6108 -16.4554
LeftUpLeg  -33.7013 -16.5829 11.276
LeftLeg  103.52 -2.45441 13.9096
LeftFoot  -23.6949 -1.37859 -6.56487
LeftToes  -8.45383 9.37529e-007 1.1992e-007
295
root  -69.5381 23.7651 17.8633 11.3156 42.4831 -5.99939
RightUpLeg  -64.0786 0.106561 -14.2131
RightLeg  84.1848 0.190529 0.541674
RightFoot  -20.6752 0.0561761 0.68554
RightToes  -47.4706 -0.28074 -0.353319
Spine  15.3533 4.06856 7.57027
Spine1  26.2332 7.71945 8.01182
HEad  4.71721 19.4987 -21.7326
LeftShoulder1  0 -2.42657e-020 -4.95415e-022
LeftArm  7.3783 -18.6682 -104.743
LeftForeArm  11.9706 -32.7808 -6.51183
LeftHand  0.0269502 -0.583107 -5.7306
RightShoulder  0 2.42657e-020 1.07489e-018
RightArm  -57.67 40.9564 67.1272
RightForeArm  60.4961 5.57708 0.945533
RightHand  -2.42754 21.3241 -12.4757
LeftUpLeg  -42.6599 -11.8079 6.83371
LeftLeg  106.761 -2.86232 12.159
LeftFoot  -27.0484 -1.5382 -6.38891
LeftToes  -7.35718 9.37529e-007 1.1992e-007
296
root  -68.9516 24.2982 18.5582 12.3389 43.8257 -5.75446
RightUpLeg  -61.1641 -1.62063 -13.5296
RightLeg  82.1846 0.247027 0.742388
RightFoot  -22.0699 0.00810944 0.419146
RightToes  -51.5032 -0.316261 -0.370474
Spine  15.4871 4.05203 7.76904
Spine1  26.6574 7.89428 8.84686
HEad  4.92466 17.5501 -20.464
LeftShoulder1  0 -2.42657e-020 -4.95415e-022
LeftArm  8.94369 -18.257 -104.425
LeftForeArm  9.95179 -35.438 -7.20029
LeftHand  -0.00615388 0.176254 -4.20332
RightShoulder  0 2.42657e-020 1.07489e-018
RightArm  -64.4592 37.0984 63.039
RightForeArm  40.9357 10.6199 1.88265
RightHand  -1.10107 21.3284 -5.474
LeftUpLeg  -49.4625 -7.25948 2.86496
LeftLeg  105.775 -2.92314 13.4196
LeftFoot  -29.6797 -1.98811 -7.49362
LeftToes  -1.66532 9.37529e-007 1.1992e-007
297
root  -68.2073 25.2105 19.2187 13.8388 46.6897 -4.9034
RightUpLeg  -56.5512 -3.94468 -13.289
RightLeg  78.1682 0.0867213 -0.00624933
RightFoot  -22.5928 0.0414802 0.585222
RightToes  -50.893 -0.31081 -0.368039
Spine  14.8632 3.11546 7.45897
Spine1  25.938 6.65199 8.50588
HEad  3.29314 16.7166 -20.328
LeftShoulder1  0 -2.42657e-020 -4.95415e-022
LeftArm  7.74242 -16.3963 -102.577
LeftForeArm  7.85889 -38.5432 -8.06689
LeftHand  -0.0154707 0.66185 -3.01624
RightShoulder  0 2.42657e-020 1.07489e-018
RightArm  -49.7967 29.3012 61.0303
RightForeArm  24.931 20.5784 3.79113
RightHand  -0.0731103 22.3697 0.00026524
LeftUpLeg  -54.8946 -2.44923 -0.0703085
LeftLeg  101.315 -1.79848 13.2287
LeftFoot  -28.9558 -1.83811 -7.11028
LeftToes  -2.1782 9.37529e-007 1.1992e-007
298
root  -67.2505 26.4183 19.8133 15.2391 49.8357 -3.91859
RightUpLeg  -50.2582 -7.37691 -13.0917
RightLeg  71.4958 0.0671859 -0.0235487
RightFoot  -22.0439 0.0242992 0.502318
RightToes  -50.6733 -0.308854 -0.367826
Spine  13.7565 1.81289 6.63589
Spine1  24.3269 4.45434 7.75206
HEad  2.7711 16.8823 -19.7147
LeftShoulder1  0 -2.42657e-020 -4.95415e-022
LeftArm  5.94634 -13.3906 -99.698
LeftForeArm  7.65327 -41.1678 -8.86352
LeftHand  -0.00801084 0.382223 -2.72174
RightShoulder  0 2.42657e-020 1.07489e-018
RightArm  -39.6082 20.4088 60.3314
RightForeArm  16.2924 30.9879 6.07547
RightHand  0.0543751 22.5039 0.643502
LeftUpLeg  -58.3763 2.69393 -2.3031
LeftLeg  94.4089 -0.13266 10.8709
LeftFoot  -26.5394 -1.27081 -5.38488
LeftToes  -5.8465 9.37529e-007 1.1992e-007
299
root  -66.0786 27.7877 20.4133 16.1354 53.039 -3.27087
RightUpLeg  -42.3582 -10.4874 -12.8633
RightLeg  62.3987 -0.0883548 -0.247802
RightFoot  -20.2097 0.0177763 0.477312
RightToes  -51.6118 -0.317233 -0.368779
Spine  12.3629 0.403574 5.67234
Spine1  22.1855 1.6243 7.27896
HEad  2.53108 17.1382 -19.7844
LeftShoulder1  0 -2.42657e-020 -4.95415e-022
LeftArm  4.90831 -9.20637 -96.485
LeftForeArm  6.88766 -43.8278 -9.74052
LeftHand  -0.00648931 0.779063 -1.31263
RightShoulder  0 2.42657e-020 1.07489e-018
RightArm  -38.3769 11.5396 61.9888
RightForeArm  10.6091 41.611 9.01287
RightHand  -0.334897 21.7746 -1.37143
LeftUpLeg  -60.3883 8.01109 -4.03061
LeftLeg  85.2901 1.31913 8.82372
LeftFoot  -23.5949 -0.834547 -3.99409
LeftToes  -9.25071 9.37529e-007 1.1992e-007
300
root  -64.7326 29.2088 21.0149 17.1173 56.3952 -2.7168
RightUpLeg  -33.4146 -13.6402 -12.57
RightLeg  50.9668 -0.59001 -0.688267
RightFoot  -16.7771 0.0213684 0.522477
RightToes  -51.6925 -0.317957 -0.371217
Spine  10.7183 -1.10978 4.64173
Spine1  19.6348 -1.69191 6.72128
HEad  3.14849 18.0096 -19.6244
LeftShoulder1  0 -2.42657e-020 -4.95415e-022
LeftArm  3.7583 -3.69482 -93.4066
LeftForeArm  6.40212 -46.5148 -10.7131
LeftHand  0.0013921 0.980323 -0.205754
RightShoulder  0 2.42657e-020 1.07489e-018
RightArm  -41.0064 3.68884 64.8591
RightForeArm  10.6432 51.9896 13.0631
RightHand  0.209321 21.6102 1.46718
LeftUpLeg  -61.8409 12.8321 -5.80187
LeftLeg  74.4829 2.92018 8.3038
LeftFoot  -21.2803 -0.658485 -3.50396
LeftToes  -10.2869 9.37529e-007 1.1992e-007
